<svg xmlns="http://www.w3.org/2000/svg" xmlns:xlink="http://www.w3.org/1999/xlink" width="500" zoomAndPan="magnify" viewBox="0 0 375 374.999991" height="500" preserveAspectRatio="xMidYMid meet" version="1.0"><defs><g/><clipPath id="08a06b7f56"><path d="M 17.746094 17.167969 L 357.253906 17.167969 L 357.253906 357.832031 L 17.746094 357.832031 Z M 17.746094 17.167969 " clip-rule="nonzero"/></clipPath></defs><rect x="-37.5" width="450" fill="#ffffff" y="-37.499999" height="449.999989" fill-opacity="1"/><rect x="-37.5" width="450" fill="#ffffff" y="-37.499999" height="449.999989" fill-opacity="1"/><rect x="-37.5" width="450" fill="#ffffff" y="-37.499999" height="449.999989" fill-opacity="1"/><g clip-path="url(#08a06b7f56)"><path fill="#253f4b" d="M 17.746094 17.167969 L 357.003906 17.167969 L 357.003906 357.597656 L 17.746094 357.597656 Z M 17.746094 17.167969 " fill-opacity="1" fill-rule="nonzero"/></g><g fill="#003c6e" fill-opacity="0.4"><g transform="translate(55.417169, 264.246212)"><g><path d="M 22.492188 -90.011719 C 20.714844 -86.257812 7.921875 -59.746094 9.199219 -81.464844 C 9.78125 -85.429688 10.171875 -89.367188 10.1875 -93.25 C 9.828125 -94.359375 9.851562 -95.527344 9.171875 -96.203125 C 8.082031 -97.015625 6.640625 -97.578125 5.550781 -98.390625 C 4.546875 -98.628906 3.871094 -97.949219 3.496094 -96.535156 C 3.121094 -95.121094 2.773438 -93.519531 2.589844 -92.136719 C 2.054688 -90.503906 2.085938 -88.957031 1.710938 -87.542969 C 0.671875 -82.734375 -0.207031 -78.144531 0.242188 -73.75 C 0.4375 -72.421875 0.0625 -71.007812 0.0390625 -69.839844 C -0.804688 -63.703125 -1.273438 -57.621094 -1.929688 -51.511719 L -2.871094 -42.0625 C -3.210938 -39.101562 -6.316406 -27.203125 -6.46875 -24.269531 C -7.054688 -21.660156 -6.695312 -19.191406 -6.929688 -16.832031 C -7.53125 -10.339844 -8.15625 -4.042969 -10.820312 2.945312 C -10.953125 3.351562 -11.003906 4.328125 -10.785156 4.492188 C -9.5625 4.894531 -8.476562 5.703125 -6.925781 5.671875 C -4.402344 5.6875 -2.449219 5.789062 -1.164062 7.929688 C -0.945312 8.09375 -0.757812 8.0625 -0.160156 8.171875 C 0.902344 8.792969 1.824219 8.460938 2.710938 6.585938 C 3.25 4.957031 3.40625 3.378906 3.429688 2.214844 C 3.644531 -12.175781 15.808594 -33.742188 19.964844 -47.738281 C 22.203125 -50.976562 23.601562 -54.671875 25.054688 -57.988281 C 37.0625 -84.582031 29.214844 -56.078125 28.128906 -34.386719 C 28.898438 -31.785156 27.929688 -29.121094 26.289062 -25.773438 C 24.589844 -22.808594 23.324219 -19.519531 21.871094 -16.203125 C 20.875 -13.730469 21.039062 -13.949219 22.507812 -13.195312 C 24.222656 -12.085938 26.71875 -12.257812 28.699219 -11.96875 C 31.878906 -11.464844 34.890625 -12.101562 38.492188 -13.984375 C 40.496094 -14.863281 42.285156 -15.898438 43.035156 -18.726562 C 43.253906 -18.5625 43.441406 -18.589844 43.46875 -18.402344 C 44.222656 -19.871094 45.007812 -21.148438 45.570312 -22.589844 L 45.953125 -22.644531 C 45.492188 -21.800781 45.792969 -21.070312 45.960938 -19.929688 C 48.257812 -22.789062 50.3125 -24.644531 51.445312 -27.523438 C 54.1875 -33.941406 63.96875 -53.222656 65.195312 -59.414062 C 65.464844 -60.230469 65.730469 -61.046875 66.570312 -61.945312 C 66.515625 -62.324219 66.8125 -62.949219 67.351562 -63.222656 C 69.597656 -65.105469 70.410156 -66.191406 70.996094 -68.800781 C 71.101562 -69.398438 71.398438 -70.023438 71.316406 -70.59375 C 71.316406 -70.59375 71.476562 -70.8125 71.859375 -70.867188 C 71.886719 -70.675781 72.101562 -70.515625 72.320312 -70.351562 C 82.589844 -90.289062 82.136719 -88.085938 81.738281 -70.957031 L 82.308594 -71.042969 C 83.027344 -74.058594 83.75 -77.074219 84.660156 -80.117188 L 84.878906 -79.953125 L 85.019531 -79.003906 C 83.996094 -76.71875 83.542969 -74.519531 84.230469 -72.488281 C 84.09375 -72.078125 84.394531 -71.347656 83.910156 -70.695312 C 82.667969 -68.574219 84.65625 -66.925781 83.035156 -64.746094 C 82.875 -64.527344 82.929688 -64.148438 83.148438 -63.988281 C 84 -60.816406 82.820312 -56.957031 82.753906 -53.453125 C 82.785156 -51.90625 82.410156 -50.492188 82.226562 -49.109375 C 82.035156 -49.082031 82.035156 -49.082031 81.523438 -48.617188 C 81.382812 -49.566406 81.621094 -50.574219 81.511719 -51.332031 C 80.761719 -48.507812 80.582031 -45.765625 80.15625 -43.375 C 80 -41.800781 79.898438 -39.84375 79.550781 -38.242188 C 79.550781 -31.644531 79.679688 -25.457031 78.785156 -18.34375 C 78.007812 -15.707031 79.101562 -13.539062 81.652344 -13.332031 C 82.441406 -13.253906 83.039062 -13.148438 83.285156 -12.796875 C 83.992188 -11.929688 84.941406 -12.066406 86.242188 -12.453125 C 87.355469 -12.808594 87.898438 -13.082031 88.464844 -13.167969 C 90.90625 -13.71875 91.070312 -13.9375 91.820312 -16.761719 C 92.46875 -17.632812 93.332031 -18.34375 93.601562 -19.15625 C 94.734375 -20.683594 95.273438 -22.3125 95.132812 -23.261719 C 93.90625 -25.023438 94.765625 -27.089844 94.351562 -28.578125 C 93.421875 -30.964844 95.3125 -33.957031 94.082031 -35.71875 C 93.863281 -35.878906 94.027344 -36.097656 93.808594 -36.257812 C 94.933594 -40.496094 94.785156 -44.160156 95.175781 -48.097656 C 95.304688 -49.863281 95.300781 -51.21875 93.972656 -51.027344 C 92.660156 -53.355469 95.554688 -56.105469 95.734375 -58.847656 C 95.03125 -58.359375 95.058594 -58.167969 94.867188 -58.140625 L 95.5 -63.082031 C 95.417969 -63.652344 95.550781 -64.058594 95.523438 -64.25 C 96.871094 -66.96875 96.78125 -68.894531 95.90625 -70.902344 C 95.441406 -71.414062 95.710938 -72.230469 95.816406 -72.828125 C 96.191406 -74.242188 97.898438 -75.847656 96.402344 -76.792969 C 96.15625 -77.144531 96.316406 -77.363281 96.289062 -77.554688 C 98.015625 -80.328125 97.652344 -82.796875 97.671875 -85.320312 C 97.824219 -88.253906 97.597656 -91.128906 97.613281 -93.65625 C 97.441406 -96.152344 97.402344 -99.054688 97.394531 -101.769531 C 97.402344 -107.007812 99.117188 -112.496094 100.777344 -118.367188 C 100.722656 -118.746094 101.019531 -119.371094 101.125 -119.96875 C 100.765625 -122.4375 100.375 -125.097656 97.632812 -125.277344 C 97.441406 -125.25 97.222656 -125.410156 96.816406 -125.546875 C 95.835938 -126.953125 94.5 -128.113281 93.003906 -129.058594 C 91.507812 -130.003906 89.496094 -130.484375 87.570312 -130.398438 C 85.617188 -130.496094 84.023438 -128.128906 82.128906 -126.496094 C 77.015625 -121.671875 72.640625 -115.792969 69.109375 -109.453125 C 67.035156 -105.078125 64.308594 -101.183594 62.207031 -96.996094 C 60.746094 -95.039062 59.667969 -93.132812 59.214844 -90.933594 C 53.09375 -79.753906 45.269531 -66.96875 51.015625 -91.28125 C 51.527344 -93.101562 51.4375 -95.03125 52.082031 -97.257812 C 53.339844 -101.90625 52.757812 -97.941406 52.304688 -102.335938 C 52.25 -102.714844 52.003906 -103.066406 52.355469 -103.3125 C 53.246094 -105.1875 53.078125 -106.328125 52.695312 -107.628906 C 52.449219 -107.980469 52.632812 -109.367188 52.519531 -110.125 C 51.757812 -111.371094 50.183594 -111.527344 47.957031 -110.816406 C 45.761719 -109.910156 44.160156 -110.257812 42.339844 -110.765625 C 41.308594 -111.199219 39.515625 -111.515625 38.429688 -110.96875 C 34.800781 -109.273438 31.496094 -106.65625 29.425781 -102.277344 L 27.132812 -98.0625 C 25.785156 -95.34375 23.839844 -92.730469 22.492188 -90.011719 Z M 60.75 -87.085938 C 61.5 -89.910156 66.457031 -99.753906 68.457031 -101.988281 C 66.652344 -98.425781 66.203125 -94.867188 63.773438 -91.601562 C 63.449219 -91.167969 63.152344 -90.539062 63.238281 -89.972656 C 62.996094 -88.964844 62.1875 -87.878906 60.75 -87.085938 Z M 47.25 -60.082031 C 48.453125 -65.105469 53.167969 -75.304688 55.652344 -78.191406 C 55.792969 -77.242188 55.390625 -76.015625 54.929688 -75.175781 C 52.417969 -72.476562 51.289062 -69.597656 50.539062 -66.769531 C 49.839844 -64.921875 49.140625 -63.074219 48.386719 -61.605469 C 48.089844 -60.980469 47.765625 -60.542969 47.25 -60.082031 Z M 27.417969 -20.703125 C 27.554688 -21.109375 27.5 -21.492188 27.414062 -22.0625 C 27.578125 -22.277344 28.089844 -22.742188 28.359375 -23.558594 L 28.5 -22.609375 L 27.800781 -20.757812 Z M 27.417969 -20.703125 "/></g></g></g><g fill="#003c6e" fill-opacity="0.4"><g transform="translate(173.344308, 246.952887)"><g><path d="M 10.804688 7.53125 C 12.355469 8.855469 13.359375 9.097656 14.578125 8.144531 C 14.929688 7.898438 15.28125 7.652344 15.605469 7.214844 C 16.769531 5.882812 17.929688 4.546875 19.121094 3.402344 C 19.609375 2.75 20.121094 2.285156 20.636719 1.824219 C 22.769531 -0.816406 24.90625 -3.457031 27.257812 -5.9375 C 27.582031 -6.371094 27.90625 -6.808594 28.449219 -7.082031 C 30.613281 -8.175781 31.695312 -10.078125 32.773438 -11.984375 C 34.632812 -15.164062 36.058594 -18.671875 35.882812 -22.527344 C 35.796875 -23.097656 35.90625 -23.695312 36.011719 -24.292969 C 36.804688 -29.453125 37.601562 -34.613281 38.207031 -39.746094 L 38.890625 -45.664062 C 40.039062 -51.070312 41.402344 -56.3125 42.167969 -61.664062 C 42.277344 -62.261719 41.972656 -62.992188 42.269531 -63.617188 C 43.371094 -66.691406 42.925781 -69.726562 43.269531 -72.6875 C 43.425781 -74.261719 43.609375 -75.648438 43.386719 -77.167969 C 42.96875 -80.015625 42.335938 -83.027344 41.699219 -86.035156 C 41.199219 -89.453125 40.507812 -92.84375 40.035156 -96.074219 C 39.949219 -96.644531 40.082031 -97.050781 40 -97.621094 C 39.890625 -98.378906 40.402344 -98.84375 41.164062 -98.957031 C 43.222656 -99.453125 45.3125 -99.757812 47.402344 -100.0625 C 48.730469 -100.257812 50.277344 -100.292969 51.363281 -100.839844 C 58.105469 -105.125 60.015625 -109.285156 59.175781 -116.339844 C 58.730469 -119.378906 57.933594 -122.171875 57.136719 -124.964844 C 57.078125 -125.34375 56.644531 -125.667969 56.207031 -125.992188 C 55.265625 -124.496094 54.097656 -124.519531 52.765625 -124.324219 C 51.058594 -124.074219 49.511719 -124.039062 48.019531 -123.625 C 44.25 -122.878906 40.695312 -121.972656 36.953125 -121.035156 C 32.453125 -119.984375 28.167969 -118.777344 23.554688 -118.488281 C 21.628906 -118.398438 19.917969 -118.148438 18.019531 -117.871094 C 12.132812 -117.007812 6.386719 -115.195312 0.695312 -113 C -1.121094 -112.152344 -2.664062 -110.761719 -4.234375 -109.5625 C -5.453125 -108.609375 -5.558594 -108.011719 -4.632812 -106.984375 C -3.894531 -105.925781 -3.78125 -105.167969 -4.214844 -104.132812 C -2.902344 -101.804688 -0.644531 -100.972656 1.285156 -99.703125 C 2.15625 -99.054688 3.246094 -98.246094 4.441406 -98.03125 C 6.992188 -97.824219 8.980469 -96.175781 11.074219 -95.125 C 12.980469 -94.046875 14.855469 -93.15625 17.054688 -92.703125 L 18.496094 -92.140625 C 19.71875 -91.738281 19.800781 -91.167969 19.78125 -90 C 19.0625 -85.628906 18.507812 -81.472656 17.980469 -77.128906 L 14.84375 -52.226562 C 14.820312 -51.058594 14.582031 -50.050781 14.367188 -48.855469 C 13.386719 -42.3125 12.027344 -35.710938 11.046875 -29.164062 C 10.808594 -5.660156 3.015625 15.269531 -3.660156 -20.996094 L -3.816406 -26.015625 C -3.84375 -26.207031 -3.871094 -26.394531 -3.738281 -26.804688 C -3.066406 -28.84375 -3.183594 -30.957031 -4.058594 -32.964844 L -4.085938 -33.152344 C -4.421875 -35.433594 -5.324219 -37.628906 -7.121094 -39.304688 C -10.378906 -39.019531 -13.445312 -38.765625 -16.394531 -36.394531 C -15.820312 -35.121094 -15.246094 -33.847656 -14.480469 -32.601562 L -13.605469 -30.59375 C -12.804688 -27.800781 -12.035156 -25.199219 -11.429688 -22.378906 C -10.519531 -18.824219 -9.800781 -15.246094 -9.082031 -11.664062 C -8.222656 -7.136719 -6.632812 -2.90625 -4.472656 1.238281 C -3.164062 3.566406 -1.148438 5.40625 1.191406 6.808594 C 2.6875 7.753906 4.425781 7.691406 6.21875 8.011719 C 7.820312 8.359375 9.394531 8.515625 10.804688 7.53125 Z M 10.804688 7.53125 "/></g></g></g><g fill="#003c6e" fill-opacity="0.4"><g transform="translate(244.556342, 236.510058)"><g><path d="M 26.105469 -1.886719 C 26.265625 -2.105469 26.265625 -2.105469 26.210938 -2.484375 L 30.949219 -5.894531 C 38.691406 -11.300781 45.945312 -17.40625 53.246094 -24.492188 C 57.625 -29.011719 61.382812 -33.832031 65.082031 -39.03125 C 67.539062 -42.105469 69.753906 -45.535156 71.777344 -48.933594 C 74.828125 -53.261719 76.875 -57.828125 79.109375 -62.425781 C 80.105469 -64.898438 81.15625 -66.992188 82.179688 -69.277344 C 84.273438 -74.820312 85.394531 -80.417969 87.109375 -85.90625 C 88.125 -90.90625 89.355469 -95.742188 89.226562 -100.570312 C 89.3125 -106.597656 88.667969 -112.324219 85.585938 -116.140625 C 82.941406 -119.628906 79.484375 -122.035156 75.027344 -123.320312 C 68.75 -125.117188 62.15625 -125.117188 55.234375 -124.683594 C 47.964844 -124.007812 40.394531 -122.703125 32.671875 -119.824219 C 28.496094 -117.855469 23.96875 -116.996094 19.765625 -115.214844 L 13.667969 -113.15625 C 11.121094 -112.007812 7.980469 -109.609375 5.238281 -109.789062 C 4.480469 -109.675781 3.613281 -108.96875 3.398438 -107.773438 C 2.890625 -105.953125 2.191406 -104.105469 2.117188 -101.960938 C 2.210938 -98.675781 2.011719 -94.765625 3.054688 -91.621094 L 3.609375 -87.824219 C 4 -85.164062 5.285156 -83.023438 7.617188 -82.980469 C 9.003906 -82.792969 10.140625 -82.960938 11.28125 -83.128906 C 14.074219 -83.925781 16.972656 -85.320312 20.195312 -87.152344 C 20.957031 -87.261719 21.5 -87.535156 22.421875 -87.867188 C 21.996094 -85.476562 21.484375 -83.65625 21.414062 -81.511719 C 20.484375 -75.941406 19.363281 -70.347656 18.460938 -64.589844 C 17.90625 -60.433594 17.246094 -55.679688 16.339844 -51.28125 L 11.953125 -26.972656 L 10.511719 -19.582031 C 10.058594 -17.382812 9.898438 -17.164062 7.894531 -16.289062 C 3.9375 -14.15625 10.144531 -16.8125 5.808594 -14.625 C 2.53125 -13.175781 -0.777344 -11.914062 -4 -10.082031 C -6.035156 -9.394531 -7.957031 -7.949219 -10.039062 -6.289062 C -11.152344 -5.929688 -12.125 -4.625 -12.527344 -3.402344 C -12.953125 -1.011719 -13.566406 1.40625 -14.152344 4.015625 C -14.289062 4.421875 -14.339844 5.402344 -13.578125 5.289062 C -12.816406 6.535156 -12.59375 8.054688 -12.558594 9.601562 C -12.175781 10.902344 -11.871094 11.632812 -10.679688 11.847656 C -8.449219 12.488281 -6.355469 13.542969 -3.292969 11.929688 C -3.132812 11.710938 -2.5625 11.625 -1.9375 11.921875 C 0.828125 10.9375 3.648438 10.328125 6.632812 9.503906 C 12.214844 7.90625 7.335938 9.011719 12.808594 6.65625 C 14.109375 6.273438 15.546875 5.480469 16.578125 5.910156 C 17.800781 6.3125 18.289062 5.660156 19.097656 4.570312 C 20.714844 1.035156 21.5 1.113281 23.695312 0.210938 C 25.652344 0.3125 28.683594 -1.492188 30.496094 -3.695312 Z M 43.644531 -37.050781 C 29.347656 -20.792969 18.203125 -17.414062 25.363281 -41.351562 C 26 -44.9375 25.933594 -48.03125 26.246094 -51.179688 C 27.234375 -56.371094 28.246094 -61.367188 29.042969 -66.527344 C 30.160156 -72.125 31.28125 -77.71875 31.992188 -83.449219 C 32.339844 -85.050781 33.007812 -87.089844 33.765625 -88.558594 C 33.519531 -88.910156 33.976562 -89.753906 34.355469 -89.808594 C 35.222656 -90.519531 36.332031 -90.875 37.066406 -91.175781 C 47.339844 -95.207031 56.644531 -96.570312 65.792969 -96.359375 C 68.535156 -96.179688 71.304688 -95.808594 73.882812 -95.414062 C 74.671875 -95.332031 75.40625 -94.277344 75.195312 -93.082031 C 75.460938 -87.300781 73.800781 -81.433594 71.433594 -75.074219 C 68.257812 -67.625 63.832031 -60.765625 59 -54.042969 C 54.488281 -47.757812 49.300781 -42.148438 43.644531 -37.050781 Z M 43.644531 -37.050781 "/></g></g></g><g fill="#446879" fill-opacity="1"><g transform="translate(48.103234, 258.80303)"><g><path d="M 22.492188 -90.011719 C 20.714844 -86.257812 7.921875 -59.746094 9.199219 -81.464844 C 9.78125 -85.429688 10.171875 -89.367188 10.1875 -93.25 C 9.828125 -94.359375 9.851562 -95.527344 9.171875 -96.203125 C 8.082031 -97.015625 6.640625 -97.578125 5.550781 -98.390625 C 4.546875 -98.628906 3.871094 -97.949219 3.496094 -96.535156 C 3.121094 -95.121094 2.773438 -93.519531 2.589844 -92.136719 C 2.054688 -90.503906 2.085938 -88.957031 1.710938 -87.542969 C 0.671875 -82.734375 -0.207031 -78.144531 0.242188 -73.75 C 0.4375 -72.421875 0.0625 -71.007812 0.0390625 -69.839844 C -0.804688 -63.703125 -1.273438 -57.621094 -1.929688 -51.511719 L -2.871094 -42.0625 C -3.210938 -39.101562 -6.316406 -27.203125 -6.46875 -24.269531 C -7.054688 -21.660156 -6.695312 -19.191406 -6.929688 -16.832031 C -7.53125 -10.339844 -8.15625 -4.042969 -10.820312 2.945312 C -10.953125 3.351562 -11.003906 4.328125 -10.785156 4.492188 C -9.5625 4.894531 -8.476562 5.703125 -6.925781 5.671875 C -4.402344 5.6875 -2.449219 5.789062 -1.164062 7.929688 C -0.945312 8.09375 -0.757812 8.0625 -0.160156 8.171875 C 0.902344 8.792969 1.824219 8.460938 2.710938 6.585938 C 3.25 4.957031 3.40625 3.378906 3.429688 2.214844 C 3.644531 -12.175781 15.808594 -33.742188 19.964844 -47.738281 C 22.203125 -50.976562 23.601562 -54.671875 25.054688 -57.988281 C 37.0625 -84.582031 29.214844 -56.078125 28.128906 -34.386719 C 28.898438 -31.785156 27.929688 -29.121094 26.289062 -25.773438 C 24.589844 -22.808594 23.324219 -19.519531 21.871094 -16.203125 C 20.875 -13.730469 21.039062 -13.949219 22.507812 -13.195312 C 24.222656 -12.085938 26.71875 -12.257812 28.699219 -11.96875 C 31.878906 -11.464844 34.890625 -12.101562 38.492188 -13.984375 C 40.496094 -14.863281 42.285156 -15.898438 43.035156 -18.726562 C 43.253906 -18.5625 43.441406 -18.589844 43.46875 -18.402344 C 44.222656 -19.871094 45.007812 -21.148438 45.570312 -22.589844 L 45.953125 -22.644531 C 45.492188 -21.800781 45.792969 -21.070312 45.960938 -19.929688 C 48.257812 -22.789062 50.3125 -24.644531 51.445312 -27.523438 C 54.1875 -33.941406 63.96875 -53.222656 65.195312 -59.414062 C 65.464844 -60.230469 65.730469 -61.046875 66.570312 -61.945312 C 66.515625 -62.324219 66.8125 -62.949219 67.351562 -63.222656 C 69.597656 -65.105469 70.410156 -66.191406 70.996094 -68.800781 C 71.101562 -69.398438 71.398438 -70.023438 71.316406 -70.59375 C 71.316406 -70.59375 71.476562 -70.8125 71.859375 -70.867188 C 71.886719 -70.675781 72.101562 -70.515625 72.320312 -70.351562 C 82.589844 -90.289062 82.136719 -88.085938 81.738281 -70.957031 L 82.308594 -71.042969 C 83.027344 -74.058594 83.75 -77.074219 84.660156 -80.117188 L 84.878906 -79.953125 L 85.019531 -79.003906 C 83.996094 -76.71875 83.542969 -74.519531 84.230469 -72.488281 C 84.09375 -72.078125 84.394531 -71.347656 83.910156 -70.695312 C 82.667969 -68.574219 84.65625 -66.925781 83.035156 -64.746094 C 82.875 -64.527344 82.929688 -64.148438 83.148438 -63.988281 C 84 -60.816406 82.820312 -56.957031 82.753906 -53.453125 C 82.785156 -51.90625 82.410156 -50.492188 82.226562 -49.109375 C 82.035156 -49.082031 82.035156 -49.082031 81.523438 -48.617188 C 81.382812 -49.566406 81.621094 -50.574219 81.511719 -51.332031 C 80.761719 -48.507812 80.582031 -45.765625 80.15625 -43.375 C 80 -41.800781 79.898438 -39.84375 79.550781 -38.242188 C 79.550781 -31.644531 79.679688 -25.457031 78.785156 -18.34375 C 78.007812 -15.707031 79.101562 -13.539062 81.652344 -13.332031 C 82.441406 -13.253906 83.039062 -13.148438 83.285156 -12.796875 C 83.992188 -11.929688 84.941406 -12.066406 86.242188 -12.453125 C 87.355469 -12.808594 87.898438 -13.082031 88.464844 -13.167969 C 90.90625 -13.71875 91.070312 -13.9375 91.820312 -16.761719 C 92.46875 -17.632812 93.332031 -18.34375 93.601562 -19.15625 C 94.734375 -20.683594 95.273438 -22.3125 95.132812 -23.261719 C 93.90625 -25.023438 94.765625 -27.089844 94.351562 -28.578125 C 93.421875 -30.964844 95.3125 -33.957031 94.082031 -35.71875 C 93.863281 -35.878906 94.027344 -36.097656 93.808594 -36.257812 C 94.933594 -40.496094 94.785156 -44.160156 95.175781 -48.097656 C 95.304688 -49.863281 95.300781 -51.21875 93.972656 -51.027344 C 92.660156 -53.355469 95.554688 -56.105469 95.734375 -58.847656 C 95.03125 -58.359375 95.058594 -58.167969 94.867188 -58.140625 L 95.5 -63.082031 C 95.417969 -63.652344 95.550781 -64.058594 95.523438 -64.25 C 96.871094 -66.96875 96.78125 -68.894531 95.90625 -70.902344 C 95.441406 -71.414062 95.710938 -72.230469 95.816406 -72.828125 C 96.191406 -74.242188 97.898438 -75.847656 96.402344 -76.792969 C 96.15625 -77.144531 96.316406 -77.363281 96.289062 -77.554688 C 98.015625 -80.328125 97.652344 -82.796875 97.671875 -85.320312 C 97.824219 -88.253906 97.597656 -91.128906 97.613281 -93.65625 C 97.441406 -96.152344 97.402344 -99.054688 97.394531 -101.769531 C 97.402344 -107.007812 99.117188 -112.496094 100.777344 -118.367188 C 100.722656 -118.746094 101.019531 -119.371094 101.125 -119.96875 C 100.765625 -122.4375 100.375 -125.097656 97.632812 -125.277344 C 97.441406 -125.25 97.222656 -125.410156 96.816406 -125.546875 C 95.835938 -126.953125 94.5 -128.113281 93.003906 -129.058594 C 91.507812 -130.003906 89.496094 -130.484375 87.570312 -130.398438 C 85.617188 -130.496094 84.023438 -128.128906 82.128906 -126.496094 C 77.015625 -121.671875 72.640625 -115.792969 69.109375 -109.453125 C 67.035156 -105.078125 64.308594 -101.183594 62.207031 -96.996094 C 60.746094 -95.039062 59.667969 -93.132812 59.214844 -90.933594 C 53.09375 -79.753906 45.269531 -66.96875 51.015625 -91.28125 C 51.527344 -93.101562 51.4375 -95.03125 52.082031 -97.257812 C 53.339844 -101.90625 52.757812 -97.941406 52.304688 -102.335938 C 52.25 -102.714844 52.003906 -103.066406 52.355469 -103.3125 C 53.246094 -105.1875 53.078125 -106.328125 52.695312 -107.628906 C 52.449219 -107.980469 52.632812 -109.367188 52.519531 -110.125 C 51.757812 -111.371094 50.183594 -111.527344 47.957031 -110.816406 C 45.761719 -109.910156 44.160156 -110.257812 42.339844 -110.765625 C 41.308594 -111.199219 39.515625 -111.515625 38.429688 -110.96875 C 34.800781 -109.273438 31.496094 -106.65625 29.425781 -102.277344 L 27.132812 -98.0625 C 25.785156 -95.34375 23.839844 -92.730469 22.492188 -90.011719 Z M 60.75 -87.085938 C 61.5 -89.910156 66.457031 -99.753906 68.457031 -101.988281 C 66.652344 -98.425781 66.203125 -94.867188 63.773438 -91.601562 C 63.449219 -91.167969 63.152344 -90.539062 63.238281 -89.972656 C 62.996094 -88.964844 62.1875 -87.878906 60.75 -87.085938 Z M 47.25 -60.082031 C 48.453125 -65.105469 53.167969 -75.304688 55.652344 -78.191406 C 55.792969 -77.242188 55.390625 -76.015625 54.929688 -75.175781 C 52.417969 -72.476562 51.289062 -69.597656 50.539062 -66.769531 C 49.839844 -64.921875 49.140625 -63.074219 48.386719 -61.605469 C 48.089844 -60.980469 47.765625 -60.542969 47.25 -60.082031 Z M 27.417969 -20.703125 C 27.554688 -21.109375 27.5 -21.492188 27.414062 -22.0625 C 27.578125 -22.277344 28.089844 -22.742188 28.359375 -23.558594 L 28.5 -22.609375 L 27.800781 -20.757812 Z M 27.417969 -20.703125 "/></g></g></g><g fill="#446879" fill-opacity="1"><g transform="translate(166.030373, 241.509704)"><g><path d="M 10.804688 7.53125 C 12.355469 8.855469 13.359375 9.097656 14.578125 8.144531 C 14.929688 7.898438 15.28125 7.652344 15.605469 7.214844 C 16.769531 5.882812 17.929688 4.546875 19.121094 3.402344 C 19.609375 2.75 20.121094 2.285156 20.636719 1.824219 C 22.769531 -0.816406 24.90625 -3.457031 27.257812 -5.9375 C 27.582031 -6.371094 27.90625 -6.808594 28.449219 -7.082031 C 30.613281 -8.175781 31.695312 -10.078125 32.773438 -11.984375 C 34.632812 -15.164062 36.058594 -18.671875 35.882812 -22.527344 C 35.796875 -23.097656 35.90625 -23.695312 36.011719 -24.292969 C 36.804688 -29.453125 37.601562 -34.613281 38.207031 -39.746094 L 38.890625 -45.664062 C 40.039062 -51.070312 41.402344 -56.3125 42.167969 -61.664062 C 42.277344 -62.261719 41.972656 -62.992188 42.269531 -63.617188 C 43.371094 -66.691406 42.925781 -69.726562 43.269531 -72.6875 C 43.425781 -74.261719 43.609375 -75.648438 43.386719 -77.167969 C 42.96875 -80.015625 42.335938 -83.027344 41.699219 -86.035156 C 41.199219 -89.453125 40.507812 -92.84375 40.035156 -96.074219 C 39.949219 -96.644531 40.082031 -97.050781 40 -97.621094 C 39.890625 -98.378906 40.402344 -98.84375 41.164062 -98.957031 C 43.222656 -99.453125 45.3125 -99.757812 47.402344 -100.0625 C 48.730469 -100.257812 50.277344 -100.292969 51.363281 -100.839844 C 58.105469 -105.125 60.015625 -109.285156 59.175781 -116.339844 C 58.730469 -119.378906 57.933594 -122.171875 57.136719 -124.964844 C 57.078125 -125.34375 56.644531 -125.667969 56.207031 -125.992188 C 55.265625 -124.496094 54.097656 -124.519531 52.765625 -124.324219 C 51.058594 -124.074219 49.511719 -124.039062 48.019531 -123.625 C 44.25 -122.878906 40.695312 -121.972656 36.953125 -121.035156 C 32.453125 -119.984375 28.167969 -118.777344 23.554688 -118.488281 C 21.628906 -118.398438 19.917969 -118.148438 18.019531 -117.871094 C 12.132812 -117.007812 6.386719 -115.195312 0.695312 -113 C -1.121094 -112.152344 -2.664062 -110.761719 -4.234375 -109.5625 C -5.453125 -108.609375 -5.558594 -108.011719 -4.632812 -106.984375 C -3.894531 -105.925781 -3.78125 -105.167969 -4.214844 -104.132812 C -2.902344 -101.804688 -0.644531 -100.972656 1.285156 -99.703125 C 2.15625 -99.054688 3.246094 -98.246094 4.441406 -98.03125 C 6.992188 -97.824219 8.980469 -96.175781 11.074219 -95.125 C 12.980469 -94.046875 14.855469 -93.15625 17.054688 -92.703125 L 18.496094 -92.140625 C 19.71875 -91.738281 19.800781 -91.167969 19.78125 -90 C 19.0625 -85.628906 18.507812 -81.472656 17.980469 -77.128906 L 14.84375 -52.226562 C 14.820312 -51.058594 14.582031 -50.050781 14.367188 -48.855469 C 13.386719 -42.3125 12.027344 -35.710938 11.046875 -29.164062 C 10.808594 -5.660156 3.015625 15.269531 -3.660156 -20.996094 L -3.816406 -26.015625 C -3.84375 -26.207031 -3.871094 -26.394531 -3.738281 -26.804688 C -3.066406 -28.84375 -3.183594 -30.957031 -4.058594 -32.964844 L -4.085938 -33.152344 C -4.421875 -35.433594 -5.324219 -37.628906 -7.121094 -39.304688 C -10.378906 -39.019531 -13.445312 -38.765625 -16.394531 -36.394531 C -15.820312 -35.121094 -15.246094 -33.847656 -14.480469 -32.601562 L -13.605469 -30.59375 C -12.804688 -27.800781 -12.035156 -25.199219 -11.429688 -22.378906 C -10.519531 -18.824219 -9.800781 -15.246094 -9.082031 -11.664062 C -8.222656 -7.136719 -6.632812 -2.90625 -4.472656 1.238281 C -3.164062 3.566406 -1.148438 5.40625 1.191406 6.808594 C 2.6875 7.753906 4.425781 7.691406 6.21875 8.011719 C 7.820312 8.359375 9.394531 8.515625 10.804688 7.53125 Z M 10.804688 7.53125 "/></g></g></g><g fill="#446879" fill-opacity="1"><g transform="translate(237.242407, 231.066875)"><g><path d="M 26.105469 -1.886719 C 26.265625 -2.105469 26.265625 -2.105469 26.210938 -2.484375 L 30.949219 -5.894531 C 38.691406 -11.300781 45.945312 -17.40625 53.246094 -24.492188 C 57.625 -29.011719 61.382812 -33.832031 65.082031 -39.03125 C 67.539062 -42.105469 69.753906 -45.535156 71.777344 -48.933594 C 74.828125 -53.261719 76.875 -57.828125 79.109375 -62.425781 C 80.105469 -64.898438 81.15625 -66.992188 82.179688 -69.277344 C 84.273438 -74.820312 85.394531 -80.417969 87.109375 -85.90625 C 88.125 -90.90625 89.355469 -95.742188 89.226562 -100.570312 C 89.3125 -106.597656 88.667969 -112.324219 85.585938 -116.140625 C 82.941406 -119.628906 79.484375 -122.035156 75.027344 -123.320312 C 68.75 -125.117188 62.15625 -125.117188 55.234375 -124.683594 C 47.964844 -124.007812 40.394531 -122.703125 32.671875 -119.824219 C 28.496094 -117.855469 23.96875 -116.996094 19.765625 -115.214844 L 13.667969 -113.15625 C 11.121094 -112.007812 7.980469 -109.609375 5.238281 -109.789062 C 4.480469 -109.675781 3.613281 -108.96875 3.398438 -107.773438 C 2.890625 -105.953125 2.191406 -104.105469 2.117188 -101.960938 C 2.210938 -98.675781 2.011719 -94.765625 3.054688 -91.621094 L 3.609375 -87.824219 C 4 -85.164062 5.285156 -83.023438 7.617188 -82.980469 C 9.003906 -82.792969 10.140625 -82.960938 11.28125 -83.128906 C 14.074219 -83.925781 16.972656 -85.320312 20.195312 -87.152344 C 20.957031 -87.261719 21.5 -87.535156 22.421875 -87.867188 C 21.996094 -85.476562 21.484375 -83.65625 21.414062 -81.511719 C 20.484375 -75.941406 19.363281 -70.347656 18.460938 -64.589844 C 17.90625 -60.433594 17.246094 -55.679688 16.339844 -51.28125 L 11.953125 -26.972656 L 10.511719 -19.582031 C 10.058594 -17.382812 9.898438 -17.164062 7.894531 -16.289062 C 3.9375 -14.15625 10.144531 -16.8125 5.808594 -14.625 C 2.53125 -13.175781 -0.777344 -11.914062 -4 -10.082031 C -6.035156 -9.394531 -7.957031 -7.949219 -10.039062 -6.289062 C -11.152344 -5.929688 -12.125 -4.625 -12.527344 -3.402344 C -12.953125 -1.011719 -13.566406 1.40625 -14.152344 4.015625 C -14.289062 4.421875 -14.339844 5.402344 -13.578125 5.289062 C -12.816406 6.535156 -12.59375 8.054688 -12.558594 9.601562 C -12.175781 10.902344 -11.871094 11.632812 -10.679688 11.847656 C -8.449219 12.488281 -6.355469 13.542969 -3.292969 11.929688 C -3.132812 11.710938 -2.5625 11.625 -1.9375 11.921875 C 0.828125 10.9375 3.648438 10.328125 6.632812 9.503906 C 12.214844 7.90625 7.335938 9.011719 12.808594 6.65625 C 14.109375 6.273438 15.546875 5.480469 16.578125 5.910156 C 17.800781 6.3125 18.289062 5.660156 19.097656 4.570312 C 20.714844 1.035156 21.5 1.113281 23.695312 0.210938 C 25.652344 0.3125 28.683594 -1.492188 30.496094 -3.695312 Z M 43.644531 -37.050781 C 29.347656 -20.792969 18.203125 -17.414062 25.363281 -41.351562 C 26 -44.9375 25.933594 -48.03125 26.246094 -51.179688 C 27.234375 -56.371094 28.246094 -61.367188 29.042969 -66.527344 C 30.160156 -72.125 31.28125 -77.71875 31.992188 -83.449219 C 32.339844 -85.050781 33.007812 -87.089844 33.765625 -88.558594 C 33.519531 -88.910156 33.976562 -89.753906 34.355469 -89.808594 C 35.222656 -90.519531 36.332031 -90.875 37.066406 -91.175781 C 47.339844 -95.207031 56.644531 -96.570312 65.792969 -96.359375 C 68.535156 -96.179688 71.304688 -95.808594 73.882812 -95.414062 C 74.671875 -95.332031 75.40625 -94.277344 75.195312 -93.082031 C 75.460938 -87.300781 73.800781 -81.433594 71.433594 -75.074219 C 68.257812 -67.625 63.832031 -60.765625 59 -54.042969 C 54.488281 -47.757812 49.300781 -42.148438 43.644531 -37.050781 Z M 43.644531 -37.050781 "/></g></g></g></svg>